<?xml version="1.0" encoding="UTF-8" standalone="no"?>
<svg
   xmlns:dc="http://purl.org/dc/elements/1.1/"
   xmlns:cc="http://creativecommons.org/ns#"
   xmlns:rdf="http://www.w3.org/1999/02/22-rdf-syntax-ns#"
   xmlns:svg="http://www.w3.org/2000/svg"
   xmlns="http://www.w3.org/2000/svg"
   xmlns:sodipodi="http://sodipodi.sourceforge.net/DTD/sodipodi-0.dtd"
   xmlns:inkscape="http://www.inkscape.org/namespaces/inkscape"
   width="24"
   height="24"
   viewBox="0 0 24 24"
   id="svg2"
   version="1.1"
   inkscape:version="0.91 r13725"
   sodipodi:docname="info.svg">
  <metadata
     id="metadata12">
    <rdf:RDF>
      <cc:Work
         rdf:about="">
        <dc:format>image/svg+xml</dc:format>
        <dc:type
           rdf:resource="http://purl.org/dc/dcmitype/StillImage" />
      </cc:Work>
    </rdf:RDF>
  </metadata>
  <defs
     id="defs10" />
  <sodipodi:namedview
     pagecolor="#ffffff"
     bordercolor="#666666"
     borderopacity="1"
     objecttolerance="10"
     gridtolerance="10"
     guidetolerance="10"
     inkscape:pageopacity="0"
     inkscape:pageshadow="2"
     inkscape:window-width="1920"
     inkscape:window-height="996"
     id="namedview8"
     showgrid="false"
     inkscape:zoom="39.333333"
     inkscape:cx="15.310972"
     inkscape:cy="12.04463"
     inkscape:window-x="1912"
     inkscape:window-y="-8"
     inkscape:window-maximized="1"
     inkscape:current-layer="svg2" />
  <path
     d="M0 0h24v24H0z"
     fill="none"
     id="path4" />
  <path
     d="M12 2C6.48 2 2 6.48 2 12s4.48 10 10 10 10-4.48 10-10S17.52 2 12 2zm1 15h-2v-6h2v6zm0-8h-2V7h2v2z"
     id="path6" />
  <path
     style="fill:#0044aa"
     d="M 11.115254,21.92268 C 7.4271568,21.483031 4.4970423,19.406924 2.9773037,16.156607 1.868214,13.78456 1.7719954,10.82748 2.7252317,8.4096969 3.3690568,6.7767021 4.6449248,5.09978 6.0585939,4.0285317 6.8650152,3.4174426 8.4910533,2.637571 9.5389831,2.359286 10.684339,2.0551288 12.428333,1.9846021 13.626608,2.1939832 c 3.095815,0.5409486 5.741673,2.4539414 7.157195,5.1747538 0.687468,1.3213995 0.968489,2.2740601 1.112282,3.770624 0.459384,4.781208 -2.752752,9.296023 -7.463657,10.49053 -0.902234,0.228773 -2.598344,0.378479 -3.317174,0.292789 z m 1.908293,-7.944714 -0.02694,-3.025424 -1.016949,0 -1.016949,0 -0.02694,3.025424 -0.02694,3.025424 1.070823,0 1.070823,0 -0.02694,-3.025424 z m 0.02391,-5.9745762 0,-1.0677966 -1.067797,0 -1.067797,0 0,1.0677966 0,1.0677966 1.067797,0 1.067797,0 0,-1.0677966 z"
     id="path3340"
     inkscape:connector-curvature="0" />
  <path
     style="fill:#2a7fff"
     d="M 11.237503,21.927367 C 11.036412,21.910297 10.636361,21.850977 10.320661,21.791415 8.5256826,21.452768 6.9500571,20.718761 5.5916359,19.588396 5.2994779,19.345287 4.680715,18.725719 4.4346091,18.429865 3.0335098,16.745544 2.2616154,14.838895 2.1038823,12.672758 2.0757549,12.286485 2.0914056,11.27618 2.1309671,10.924346 2.2706216,9.6823505 2.5657087,8.6614036 3.0766441,7.6524788 3.5587895,6.7004043 4.223342,5.778503 4.9993826,4.985157 5.7580216,4.2096009 6.3278608,3.7885127 7.3213355,3.2693278 l 0.2815303,-0.1471264 4.4178442,0 4.417845,0 0.208425,0.1108298 c 0.88967,0.4730793 1.658014,1.0415499 2.376181,1.7580506 0.825143,0.8232298 1.390059,1.6260138 1.939348,2.7559421 0.471501,0.9699176 0.708925,1.7419056 0.852783,2.7728331 0.0867,0.621314 0.107729,0.916887 0.10809,1.519081 3.6e-4,0.596544 -0.01603,0.845716 -0.08958,1.362455 -0.503901,3.540081 -2.961018,6.602324 -6.32222,7.879221 -0.918811,0.34905 -1.735474,0.519421 -2.961738,0.617877 -0.414663,0.03329 -1.086208,0.04807 -1.312342,0.02888 z m 1.809425,-4.93626 c 0.01118,-0.02914 -0.02203,-4.483026 -0.04078,-5.469016 l -0.01103,-0.579768 -1.014205,0 c -0.795584,0 -1.015739,0.0048 -1.021321,0.02247 -0.0097,0.03056 -0.06021,6.023398 -0.05094,6.040369 0.0041,0.0074 0.484444,0.01348 1.067534,0.01348 0.935612,0 1.061405,-0.0032 1.070731,-0.02754 z m 0.0063,-8.988071 0,-1.0696488 -1.069649,0 -1.069649,0 0,1.0696488 0,1.0696488 1.069649,0 1.069649,0 0,-1.0696488 z"
     id="path3335"
     inkscape:connector-curvature="0" />
  <path
     style="fill:#2a7fff"
     d="M 7.6388121,3.1122491 C 7.7019187,3.0585809 8.6527941,2.660738 9.0731342,2.5121339 10.298612,2.0788874 12.340506,1.9573392 13.776572,2.2321517 c 0.816393,0.1562288 1.71882,0.4494077 2.453342,0.7970372 l 0.190678,0.090243 -4.396187,9.132e-4 c -2.4179022,5.022e-4 -4.3914191,-0.00314 -4.3855929,-0.0081 z"
     id="path3339"
     inkscape:connector-curvature="0" />
  <path
     style="fill:#2a7fff"
     d="M 11.208727,21.918486 C 9.9007208,21.773892 8.4702476,21.348378 7.4157252,20.790204 6.448037,20.277993 5.7578464,19.770601 5.0056637,19.018455 3.3854938,17.398364 2.4454255,15.452139 2.1530984,13.112783 2.0985009,12.675865 2.0923382,11.312223 2.1430449,10.888207 2.3324961,9.3039924 2.7729393,8.055762 3.600811,6.7568513 4.2963822,5.6655168 5.3658231,4.5256495 6.3019477,3.8778357 6.5351977,3.7164228 7.0773275,3.4016782 7.409146,3.235029 L 7.6356776,3.121258 8.0747448,3.1158854 8.5138121,3.1105128 8.1081478,3.0968176 C 7.7406796,3.0844119 7.7095599,3.0798766 7.7776393,3.0486493 7.9741681,2.9585039 8.6728404,2.6724413 8.9430687,2.571479 9.7333762,2.2762054 10.607186,2.135459 11.793473,2.1123584 c 1.218962,-0.023737 1.870767,0.057021 2.92968,0.3629837 1.334747,0.3856623 2.503206,0.9961676 3.566083,1.863234 0.349253,0.2849108 1.004292,0.9283363 1.301899,1.2788172 0.907137,1.0682992 1.708606,2.62005 2.028871,3.9281634 0.197412,0.8063203 0.283887,1.5608893 0.284984,2.4867183 9.02e-4,0.761349 -0.0289,1.118524 -0.146674,1.757761 -0.454594,2.46742 -1.883996,4.725436 -3.940824,6.22529 -1.306089,0.952409 -2.727809,1.536639 -4.295205,1.765034 -0.688713,0.100356 -1.965605,0.17659 -2.31356,0.138126 z m 1.790079,-4.907535 0.06126,-0.01639 -0.01704,-2.608261 c -0.0094,-1.434543 -0.02443,-2.800794 -0.03345,-3.036113 l -0.01641,-0.427852 -1.010887,0.0084 c -0.555988,0.0046 -1.016453,0.01408 -1.023255,0.02107 -0.0068,0.007 -0.02462,1.367932 -0.0396,3.024313 -0.02146,2.373233 -0.02063,3.015797 0.0039,3.031391 0.03733,0.02372 1.987613,0.02699 2.075464,0.0035 z m 0.05314,-9.008337 0,-1.0677966 -1.067797,0 -1.067796,0 0,1.0677966 0,1.0677966 1.067796,0 1.067797,0 0,-1.0677966 z"
     id="path3341"
     inkscape:connector-curvature="0" />
  <path
     style="fill:#2a7fff"
     d="M 10.992626,21.894176 C 10.606611,21.84297 10.096978,21.743213 9.6451681,21.630419 6.8177522,20.924558 4.4966895,19.093103 3.184122,16.532275 2.5011367,15.199766 2.1462436,13.814301 2.1030632,12.311936 2.0293142,9.7460073 2.7650702,7.6368611 4.437032,5.6212918 4.9136626,5.0467081 5.652673,4.340103 6.1521425,3.9813883 6.4329608,3.7797072 6.8379631,3.5350629 7.2607635,3.3117189 L 7.6213144,3.121258 7.8641736,3.1165958 8.1070325,3.1119336 7.9036426,3.097528 7.7002528,3.0831224 7.9484332,2.9734786 C 9.0045173,2.5069102 9.6461934,2.3119485 10.509575,2.1953219 c 0.68154,-0.092063 1.788957,-0.1211558 2.45339,-0.064452 1.404368,0.1198513 3.034453,0.6761144 4.30026,1.4674542 1.111572,0.6949175 2.195618,1.7309242 2.905948,2.7771711 0.528367,0.7782323 1.027143,1.7920754 1.307045,2.6567797 0.188295,0.5817028 0.314312,1.222756 0.399818,2.033898 0.0459,0.435374 0.03866,1.633835 -0.01243,2.059322 -0.261828,2.180575 -1.223931,4.190631 -2.760815,5.767984 -0.954941,0.980087 -1.976841,1.688685 -3.20339,2.221272 -1.090203,0.473384 -2.186959,0.709678 -3.68644,0.794238 -0.577771,0.03258 -0.891785,0.02877 -1.220339,-0.01481 z m 1.967943,-4.883099 0.0993,-0.0164 -0.01682,-2.417641 c -0.0093,-1.329703 -0.02425,-2.696898 -0.03334,-3.038212 l -0.01652,-0.62057 -1.004666,0.01599 c -0.672223,0.0107 -1.010253,0.02503 -1.021548,0.04331 -0.02072,0.03352 -0.05057,2.773343 -0.0506,4.644057 l -2.1e-5,1.37747 0.0572,0.01102 c 0.09323,0.01796 1.878899,0.01884 1.987011,9.82e-4 z m 0.09138,-9.008463 0,-1.0677966 -1.067797,0 -1.067796,0 0,1.0677966 0,1.0677966 1.067796,0 1.067797,0 0,-1.0677966 z"
     id="path3343"
     inkscape:connector-curvature="0" />
</svg>
