<?xml version="1.0" encoding="UTF-8" standalone="no"?>
<!-- Created with Inkscape (http://www.inkscape.org/) -->

<svg
   xmlns:dc="http://purl.org/dc/elements/1.1/"
   xmlns:cc="http://creativecommons.org/ns#"
   xmlns:rdf="http://www.w3.org/1999/02/22-rdf-syntax-ns#"
   xmlns:svg="http://www.w3.org/2000/svg"
   xmlns="http://www.w3.org/2000/svg"
   xmlns:sodipodi="http://sodipodi.sourceforge.net/DTD/sodipodi-0.dtd"
   xmlns:inkscape="http://www.inkscape.org/namespaces/inkscape"
   width="19.06222mm"
   height="16.529949mm"
   viewBox="0 0 67.543303 58.570688"
   id="svg3369"
   version="1.1"
   inkscape:version="0.91 r13725"
   sodipodi:docname="laturel_logo_small.svg">
  <defs
     id="defs3371" />
  <sodipodi:namedview
     id="base"
     pagecolor="#ffffff"
     bordercolor="#666666"
     borderopacity="1"
     inkscape:pageopacity="1"
     inkscape:pageshadow="2"
     inkscape:zoom="11.2"
     inkscape:cx="47.798609"
     inkscape:cy="33.247381"
     inkscape:document-units="px"
     inkscape:current-layer="layer2"
     showgrid="false"
     fit-margin-top="0"
     fit-margin-left="0"
     fit-margin-right="0"
     fit-margin-bottom="0"
     inkscape:window-width="2560"
     inkscape:window-height="1418"
     inkscape:window-x="-8"
     inkscape:window-y="-8"
     inkscape:window-maximized="1" />
  <metadata
     id="metadata3374">
    <rdf:RDF>
      <cc:Work
         rdf:about="">
        <dc:format>image/svg+xml</dc:format>
        <dc:type
           rdf:resource="http://purl.org/dc/dcmitype/StillImage" />
        <dc:title />
      </cc:Work>
    </rdf:RDF>
  </metadata>
  <g
     inkscape:label="Layer 1"
     inkscape:groupmode="layer"
     id="layer1"
     transform="translate(430.2916,467.61875)">
    <g
       id="g3346"
       transform="translate(-443.21429,-742.28065)">
      <g
         inkscape:groupmode="layer"
         id="layer2"
         inkscape:label="Bottom">
        <rect
           style="fill:#ffffff;fill-opacity:1"
           id="rect4139"
           width="53.214287"
           height="19.553572"
           x="19.083405"
           y="291.44687" />
      </g>
      <g
         id="g3405"
         transform="matrix(0.1674653,0,0,0.1674653,9.1377551,271.57327)">
        <path
           inkscape:connector-curvature="0"
           id="path3352"
           d="m 180.53571,354.70787 c -15.51474,-3.71117 -25.81853,-7.13 -41.58602,-13.79836 -19.16613,-8.10572 -22.34207,-9.92267 -37.08918,-21.21866 C 86.259958,307.74113 85.306046,306.73359 72.700953,288.89172 57.078252,266.77857 58.727701,269.81474 48.046579,243.50985 40.575493,225.11047 38.745142,218.97452 34.725489,198.85313 l -4.65994,-23.3265 3.287345,-23.1651 c 3.891491,-27.42238 9.626831,-46.78675 20.804111,-70.241457 6.998898,-14.686675 7.973284,-16.039142 20.392429,-28.30509 l 13.04233,-12.881447 15.980566,-4.931053 15.98057,-4.931054 102.23281,0 102.23281,0 15.98058,4.931054 15.98056,4.931053 13.04232,12.881447 c 12.42019,12.266971 13.3998,13.626795 20.53602,28.506446 7.52202,15.684076 14.6644,35.609961 14.70563,41.025871 0.0125,1.59548 1.81052,10.79378 3.99638,20.44068 l 3.97429,17.53981 -5.15417,31.43433 -5.15416,31.43431 -11.78514,25.20446 C 378.98191,273.2661 377.55095,275.6318 363.21026,293.923 l -15.14545,19.31767 -18.93961,12.26855 c -14.01048,9.07558 -24.83113,14.85446 -41.57705,22.20465 l -22.63744,9.9361 -19.375,0.9879 c -36.57297,1.86481 -42.19571,1.52485 -65,-3.93 z m -98.124996,-176.13644 0,-50.625 -4.375,0 -4.375,0 -0.32729,49.37247 c -0.180009,27.15485 -0.04325,50.11265 0.303906,51.01734 0.390532,1.0177 2.183441,1.49528 4.70229,1.25253 l 4.071094,-0.39234 0,-50.625 z m 108.124996,47.5 0,-3.75 -8.06619,0 c -9.57186,0 -13.77647,-1.64526 -15.628,-6.11526 -0.86581,-2.09025 -1.23869,-11.95045 -1.02199,-27.02535 l 0.34118,-23.73439 12.1875,-0.35776 12.1875,-0.35777 0,-3.65947 0,-3.65948 -12.1875,-0.35776 -12.1875,-0.35776 -0.625,-10 -0.625,-10 -4.375,0 -4.375,0 -0.625,10 -0.625,10 -4.0625,0.3917 c -3.54986,0.34226 -4.0625,0.84491 -4.0625,3.9833 0,3.13839 0.51264,3.64104 4.0625,3.9833 l 4.0625,0.3917 0.63939,26.25 c 0.39601,16.25853 1.18457,27.20689 2.07171,28.76399 3.95905,6.94877 9.33032,9.02803 23.8514,9.23306 l 9.0625,0.12795 0,-3.75 z m 72.72036,-21.5625 c 0.45271,-28.32025 0.98635,-30.417 9.36853,-36.81039 4.00022,-3.05112 5.69791,-3.50211 13.18313,-3.50211 l 8.59163,0 -0.36933,-4.375 c -0.32991,-3.90819 -0.79316,-4.41608 -4.34161,-4.75998 -6.33665,-0.6141 -13.91256,2.04953 -19.06256,6.70224 -5.92412,5.35209 -7.32682,5.39606 -7.82345,0.24524 -0.3576,-3.70888 -0.79972,-4.09628 -5.0792,-4.45046 l -4.6875,-0.38795 0,36.32545 0,36.32546 4.90786,0 4.90787,0 0.40463,-25.3125 z m 99.15464,-25.9375 0,-50.625 -4.375,0 -4.375,0 -0.32729,49.37247 c -0.18001,27.15485 -0.0433,50.11265 0.3039,51.01734 0.39054,1.0177 2.18345,1.49528 4.70229,1.25253 l 4.0711,-0.39234 0,-50.625 z"
           style="fill:#f8d3a1" />
        <path
           inkscape:connector-curvature="0"
           id="path3350"
           d="m 192.41071,354.71348 c -20.86766,-4.4921 -34.06559,-8.62365 -52.46558,-16.42411 -15.51099,-6.5757 -20.55672,-9.4558 -32.92626,-18.7943 C 88.842639,305.77277 88.319868,305.23173 74.272088,285.60385 61.238897,267.39359 58.604613,262.47357 48.806943,238.04287 43.268916,224.23369 40.886768,215.93059 37.272848,197.84019 l -4.554583,-22.79911 3.222607,-22.29733 C 39.644459,127.11852 45.488354,107.08021 55.588795,85.372386 61.559776,72.539582 62.813943,70.827581 75.9314,57.603699 l 13.979314,-14.092731 15.259266,-4.969769 15.25927,-4.96977 101.35646,0 101.35646,0 15.25926,4.96977 15.25928,4.969769 13.97931,14.092731 c 13.11615,13.222562 14.37567,14.941735 20.39834,27.84273 6.69742,14.34636 13.74735,34.500881 13.74735,39.301311 0,1.536 1.7483,10.28615 3.88511,19.44476 l 3.88511,16.65204 -4.51117,27.59129 c -4.6202,28.25805 -5.71755,32.05304 -16.66582,57.6356 -8.52749,19.926 -12.76694,26.84626 -28.82404,47.05097 l -14.76116,18.57403 -18.79187,12.16484 c -13.63181,8.8245 -24.77096,14.78783 -40.56651,21.71723 l -21.77465,9.55241 -19.375,0.99743 c -29.37771,1.51238 -39.56783,1.23445 -51.875,-1.41486 z m -0.875,-123.89205 c 2.10344,-2.10344 1.86702,-6.7044 -0.46429,-9.03571 -1.37116,-1.37116 -4.34887,-1.96429 -9.86151,-1.96429 -5.90988,0 -8.63986,-0.60082 -10.84823,-2.38751 -2.87416,-2.32537 -2.96176,-2.97765 -3.3656,-25.06138 -0.3119,-17.05705 -0.0194,-23.15004 1.18068,-24.59606 1.30812,-1.5762 3.35605,-1.76634 11.37711,-1.05631 10.98595,0.97247 13.48184,-0.0554 13.48184,-5.55179 0,-5.50468 -1.87472,-6.31691 -12.66026,-5.48519 -12.82985,0.98936 -13.58974,0.3385 -13.58974,-11.63981 l 0,-9.22195 -6.08859,0 -6.0886,0 -0.87231,10 c -0.80702,9.25154 -1.08106,10 -3.6614,10 -3.69292,0 -5.7891,2.26308 -5.7891,6.25 0,3.94937 2.09034,6.25 5.67871,6.25 2.61661,0 2.69806,0.55781 3.51318,24.0625 0.89258,25.73846 1.88412,31.76134 5.81436,35.31815 5.20197,4.70774 28.65862,7.70447 32.24375,4.11935 z m 72.36373,-0.0625 c 0.5562,-0.85938 1.01127,-12.25 1.01127,-25.3125 0,-21.59074 0.23509,-24.19814 2.58578,-28.67914 4.18636,-7.98026 8.015,-10.07086 18.44338,-10.07086 4.93397,0 9.3841,-0.5625 9.8892,-1.25 1.30523,-1.77657 1.13768,-8.40355 -0.26862,-10.625 -0.8237,-1.30116 -3.20883,-1.84866 -7.79336,-1.78896 -6.77464,0.0883 -13.17789,2.5913 -18.07634,7.06613 -3.05738,2.79298 -5.40504,2.06924 -5.40504,-1.66627 0,-2.22033 -0.71437,-2.45042 -6.5625,-2.11372 l -6.5625,0.37782 0,36.25 c 0,19.9375 0.49075,36.95312 1.09055,37.8125 0.59981,0.85937 3.23849,1.5625 5.86374,1.5625 2.62524,0 5.22824,-0.70313 5.78444,-1.5625 z m -179.613726,-52.1875 0,-52.5 -6.25,0 -6.25,0 0,52.5 0,52.5 6.25,0 6.25,0 0,-52.5 z m 279.999996,0 0,-52.5 -6.14878,0 -6.14876,0 -0.41374,22.8125 c -0.22754,12.54687 -0.22125,36.17187 0.014,52.5 l 0.42774,29.6875 6.13476,0 6.13477,0 0,-52.5 z"
           style="fill:#f39d24" />
        <path
           inkscape:connector-curvature="0"
           id="path3348"
           d="m 201.78571,353.936 c -10.22789,-1.78363 -30.86924,-7.05321 -40,-10.21167 -26.36065,-9.11855 -38.3287,-15.23255 -55.86669,-28.54006 -11.938816,-9.05895 -15.512944,-12.6613 -24.3599,-24.55224 -15.163189,-20.38041 -21.035872,-30.84455 -30.069822,-53.5794 -6.562859,-16.5161 -8.854809,-24.266 -12.149538,-41.08191 L 35.278987,175.24501 37.9798,155.34572 C 41.219658,131.47482 48.347,107.38343 58.50175,85.978728 64.858832,72.578945 66.077185,70.909653 78.219113,58.963549 l 12.941601,-12.732879 14.711826,-5.040099 14.71183,-5.040098 101.08156,-0.0413 101.08157,-0.0413 14.8316,5.0814 14.83161,5.0814 12.94949,12.732878 c 11.88457,11.685781 13.46362,13.812222 19.20143,25.857878 6.82362,14.32511 14.72408,36.276791 14.72408,40.911291 0,1.60605 1.74813,10.27351 3.88474,19.26103 l 3.88474,16.34097 -1.95877,10.80586 c -1.07731,5.94321 -2.86557,16.96752 -3.97391,24.49847 -1.26557,8.59942 -3.60934,17.77235 -6.30097,24.66059 -2.3572,6.03238 -4.28583,11.47155 -4.28583,12.08704 0,2.20836 -10.43809,24.73391 -15.43537,33.30975 -2.80432,4.8125 -9.33795,14.03399 -14.51919,20.4922 -5.18124,6.45821 -11.26265,14.13885 -13.51424,17.06807 -2.67167,3.47574 -10.05042,9.16684 -21.24084,16.38267 -18.00981,11.61313 -19.54562,12.42077 -46.54036,24.4744 l -16.875,7.53497 -18.75,0.99415 c -20.03894,1.06248 -36.79086,1.17974 -41.875,0.29311 z m 80.22575,-68.146 c 7.96219,-3.64521 14.83315,-10.06477 18.79931,-17.56427 3.94893,-7.46691 3.94893,-21.84169 0,-29.3086 -5.5871,-10.56448 -17.08162,-18.80173 -29.33756,-21.02399 l -4.6875,-0.84994 0,-16.71058 c 0,-12.43915 0.51396,-17.99513 2.01072,-21.73589 1.1059,-2.76391 2.44955,-5.0253 2.98589,-5.0253 0.53634,0 1.36625,2.10937 1.84424,4.6875 1.1785,6.35638 6.61775,16.09507 11.09229,19.86014 2.02028,1.69996 6.54619,4.58375 10.05756,6.40841 5.44265,2.82825 7.95143,3.31795 17.0093,3.32008 8.67839,0.002 11.65556,-0.53012 16.25,-2.90459 9.15399,-4.73093 13.56669,-8.64074 17.50784,-15.51258 l 3.7187,-6.48396 0.0113,23.8125 c 0.009,16.8403 0.45091,24.25169 1.51172,25.3125 1.94476,1.94476 12.55524,1.94476 14.5,0 2.15627,-2.15626 2.15627,-104.84374 0,-107 -1.94476,-1.94476 -12.55524,-1.94476 -14.5,0 -1.02311,1.02311 -1.50372,7.0836 -1.51172,19.0625 l -0.0113,17.5625 -3.7187,-6.48396 c -3.94115,-6.87184 -8.35385,-10.78165 -17.50784,-15.51258 -4.59444,-2.37447 -7.57161,-2.90662 -16.25,-2.90458 -9.11148,0.002 -11.55385,0.48491 -17.14555,3.38911 -3.5863,1.86264 -9.31116,5.77732 -12.72191,8.69931 -3.41075,2.92199 -8.11583,6.48931 -10.45572,7.92739 l -4.25435,2.6147 -1.14873,-2.6147 c -0.91237,-2.07665 -2.5928,-2.7433 -8.16647,-3.23969 -5.91573,-0.52685 -7.52502,-1.23021 -10.24827,-4.47911 -1.77679,-2.11975 -6.77506,-5.76546 -11.10726,-8.10156 -7.1935,-3.87903 -8.79837,-4.24745 -18.50174,-4.24745 -9.72514,0 -11.29929,0.36355 -18.58658,4.29267 -4.37886,2.36096 -9.44136,6.14728 -11.25,8.41403 -3.089,3.87141 -3.76221,4.12135 -11.10092,4.12138 l -7.8125,4e-5 0,-10 0,-10 3.50457,0 c 4.93045,0 15.51429,-5.55885 18.64425,-9.79235 9.31038,-12.59296 5.29922,-28.772517 -8.88557,-35.841094 -8.01656,-3.994824 -14.75994,-3.994824 -22.7765,0 -17.73171,8.836083 -18.78702,31.279774 -1.95436,41.564544 l 4.59261,2.80609 -3.8125,0.006 c -5.0522,0.009 -6.8125,2.01268 -6.8125,7.7564 0,2.6125 -0.31878,4.75 -0.7084,4.75 -0.38963,0 -2.499,-1.34843 -4.6875,-2.99649 -19.50273,-14.68653 -50.344158,-4.22008 -57.793277,19.61309 -1.513824,4.84341 -1.650182,3.67468 -1.727199,-14.80394 -0.05767,-13.83698 -0.549061,-20.52769 -1.58362,-21.56225 -1.94476,-1.94476 -12.55524,-1.94476 -14.5,0 -2.15626,2.15626 -2.15626,104.84374 0,107 1.94476,1.94476 12.55524,1.94476 14.5,0 1.066039,-1.06604 1.524191,-9.11241 1.58362,-27.8125 0.07515,-23.64903 0.24999,-25.7802 1.727199,-21.05394 4.64606,14.86489 20.679307,26.61644 36.314177,26.61644 6.95019,0 16.24564,-3.06193 21.6446,-7.12974 2.27953,-1.7175 4.31161,-2.9253 4.51575,-2.684 0.20413,0.24131 0.73111,4.93874 1.17107,10.43874 l 0.79993,10 -5.82924,4.375 c -3.38432,2.54002 -7.44881,7.25854 -9.69067,11.25 -3.36099,5.98398 -3.86142,8.09002 -3.86125,16.25 1.7e-4,8.04605 0.52359,10.31992 3.69244,16.0409 4.22053,7.61965 8.34853,11.44961 17.42307,16.16515 5.44441,2.82917 7.94849,3.31757 17.0093,3.31757 9.06081,0 11.56489,-0.4884 17.0093,-3.31757 9.07454,-4.71554 13.20254,-8.5455 17.42307,-16.16515 3.18114,-5.74317 3.68825,-7.96363 3.66347,-16.0409 -0.0349,-11.36298 -2.75235,-17.30791 -12.29757,-26.90314 -6.13123,-6.16336 -6.87792,-6.53197 -16.42327,-8.10761 -5.5,-0.90788 -10.41326,-2.26123 -10.91836,-3.00746 -0.5051,-0.74624 -0.92698,-11.34117 -0.9375,-23.54429 l -0.0191,-22.1875 4.82513,0 4.82511,0 0.70668,6.84711 c 0.81738,7.9196 5.92429,18.15511 11.32622,22.70053 2.02028,1.69996 6.54619,4.58375 10.05756,6.40841 5.44441,2.82917 7.94849,3.31757 17.0093,3.31757 9.06081,0 11.56489,-0.4884 17.0093,-3.31757 3.51137,-1.82466 8.152,-4.80498 10.3125,-6.62293 l 3.9282,-3.30536 0,13.08448 0,13.08446 -3.75966,1.5573 c -5.18215,2.14651 -13.10249,10.0953 -16.2954,16.35393 -15.34277,30.0743 20.36875,61.94937 52.78081,47.11064 z M 270.88237,133.49627 c 9.61533,-2.67019 18.34844,-13.93847 18.34844,-23.67484 0,-12.77893 -12.79781,-24.986058 -26.1951,-24.986058 -9.71914,0 -19.82648,6.592225 -23.91877,15.600338 -2.90143,6.38673 -2.88898,12.43744 0.0386,18.76072 5.66454,12.23481 18.43546,17.99089 31.72684,14.29984 z"
           style="fill:#f39004" />
      </g>
    </g>
  </g>
</svg>
